<svg width="274" height="99" viewBox="0 0 274 99" fill="none" xmlns="http://www.w3.org/2000/svg">
<g clip-path="url(#clip0_2495_296)">
<path d="M274 78.042C274 90.5714 265.203 98.5688 250.807 98.5688C242.943 98.5688 235.079 96.4362 228.681 92.704L231.214 77.109C239.478 81.5076 245.209 83.6402 250.541 83.6402C254.406 83.6402 256.272 81.7742 256.272 79.2416C256.272 76.176 252.807 73.7767 246.542 70.8443C237.745 66.8456 229.747 61.6473 229.747 50.1843C229.747 39.2544 237.612 30.5905 251.207 30.5905C258.405 30.5905 264.403 32.0567 270.401 34.9891L267.869 50.4508C260.138 46.852 256.006 45.6524 252.14 45.6524C249.341 45.6524 247.608 47.1186 247.608 49.3845C247.608 51.917 250.807 54.3163 256.672 56.9821C265.603 61.2474 274 66.8456 274 78.042Z" fill="#001466"/>
<path d="M225.939 96.9694C223.273 97.6358 219.408 98.3023 214.876 98.3023C200.48 98.3023 193.949 93.2372 193.949 77.109V48.3182H186.485V31.9235H193.949V12.0631L212.477 8.99744V31.9235H222.873L225.539 48.3182H212.477V74.7098C212.477 79.375 214.209 81.5076 218.608 81.5076C220.074 81.5076 222.207 81.3743 223.406 81.1077L225.939 96.9694Z" fill="#001466"/>
<path d="M186.115 18.0613C183.982 17.6614 182.383 17.5281 179.983 17.5281C174.785 17.5281 172.786 19.7941 172.786 24.9924V31.9236H182.916L185.582 48.3183H172.786V97.236H154.258V48.3183H146.394V31.9236H154.258V21.7935C154.258 8.86425 161.589 2.19971 173.719 2.19971C178.784 2.19971 181.183 2.59958 183.715 2.99946L186.115 18.0613Z" fill="#001466"/>
<path d="M142.156 13.9292C142.156 20.0606 137.224 24.859 131.226 24.859C125.095 24.859 120.296 20.0606 120.296 13.9292C120.296 7.79781 125.095 3.13263 131.226 3.13263C137.224 3.13263 142.156 7.79781 142.156 13.9292ZM140.823 97.2359H121.496V31.9234H140.823V97.2359Z" fill="#001466"/>
<path d="M112.65 97.236H93.3233V52.5835C93.3233 49.7844 91.8571 47.7851 89.058 47.7851C86.5255 47.7851 83.8597 49.2513 81.3272 51.2506V97.236H62V3.9324L81.3272 1V37.2551C85.7258 33.523 90.9241 30.5906 96.9222 30.5906C107.719 30.5906 112.65 36.5886 112.65 47.2519V97.236Z" fill="#001466"/>
<path d="M55.5822 71.2443C55.5822 88.4388 43.986 98.3023 26.9247 98.3023C17.1945 98.3023 8.13074 96.303 0 92.4375L2.9324 73.7768C11.1964 78.0421 17.9943 80.4414 24.7921 80.4414C30.5236 80.4414 33.7226 77.6423 33.7226 73.2437C33.7226 68.0453 30.3903 64.7131 20.3935 58.1818C10.6633 51.9171 1.19962 44.1863 1.19962 30.5906C1.19962 14.729 11.9962 4.19904 28.6575 4.19904C37.9879 4.19904 44.2525 5.79852 50.6505 8.73092L47.8514 27.5249C41.0536 23.5262 35.7219 22.06 30.3903 22.06C25.8584 22.06 23.0593 24.9924 23.0593 28.458C23.0593 32.8566 26.2583 35.7889 35.7219 41.787C45.9853 48.3183 55.5822 56.7156 55.5822 71.2443Z" fill="#001466"/>
</g>
<defs>
<clipPath id="clip0_2495_296">
<rect width="274" height="99" fill="white"/>
</clipPath>
</defs>
</svg>
